<?xml version="1.0" standalone="no"?><!DOCTYPE svg PUBLIC "-//W3C//DTD SVG 1.1//EN" "http://www.w3.org/Graphics/SVG/1.1/DTD/svg11.dtd"><svg t="1650693476375" class="icon" viewBox="0 0 1024 1024" version="1.1" xmlns="http://www.w3.org/2000/svg" p-id="3058" xmlns:xlink="http://www.w3.org/1999/xlink" width="16" height="16"><defs><style type="text/css"></style></defs><path d="M284.96 808l-114.24 72.52a20 20 0 0 1-30.72-16.88V160a20 20 0 0 1 20-20h704a20 20 0 0 1 20 20v92H264.52A12.52 12.52 0 0 0 252 264.52v530.96a12.52 12.52 0 0 0 12.52 12.52z" fill="#47BAFF" p-id="3059"></path><path d="M888 671.44v193.84a20 20 0 0 1-30.72 16.88l-142.6-90.56q-15.28-10.04-20.4-10H288a20 20 0 0 1-20-20V288a20 20 0 0 1 20-20h580a20 20 0 0 1 20 20zM466 428a6 6 0 0 0-12 0v188a6 6 0 0 0 12 0z m112 0a6 6 0 0 0-12 0v188a6 6 0 0 0 12 0z m112 0a6 6 0 0 0-12 0v188a6 6 0 0 0 12 0z" fill="#0942F0" p-id="3060"></path></svg>